HIERARCHY
ROOT pelvis
{
  OFFSET 0 100 0
  CHANNELS 6 Xposition Yposition Zposition Zrotation Xrotation Yrotation
  JOINT pelvis_right_femur
  {
    OFFSET -10.78128 -3.44521 -0.5502486
    CHANNELS 3 Zrotation Xrotation Yrotation
    JOINT right_femur_tibia
    {
      OFFSET -0.8047443 -44.0398 -0.1307829
      CHANNELS 3 Zrotation Xrotation Yrotation
      JOINT right_tibia_foot
      {
        OFFSET 3.006224 -47.83518 -5
        CHANNELS 3 Zrotation Xrotation Yrotation
        End Site
        {
          OFFSET 0 -5 15
        }
      }
    }
  }
  JOINT pelvis_left_femur
  {
    OFFSET 10.78128 -3.44521 -0.5502486
    CHANNELS 3 Zrotation Xrotation Yrotation
    JOINT left_femur_tibia
    {
      OFFSET 0.8047443 -44.0398 -0.1307829
      CHANNELS 3 Zrotation Xrotation Yrotation
      JOINT left_tibia_foot
      {
        OFFSET -4.370144 -48.10324 -4.275266
        CHANNELS 3 Zrotation Xrotation Yrotation
        End Site
        {
          OFFSET 0 -5 15
        }
      }
    }
  }
  JOINT pelvis_spine1
  {
    OFFSET 0 6.468898 -3.129235
    CHANNELS 3 Zrotation Xrotation Yrotation
    JOINT spine1
    {
      OFFSET 0 23.15396 4.99043
      CHANNELS 3 Zrotation Xrotation Yrotation
      JOINT spine2
      {
        OFFSET 0 20.79997 -5.064912
        CHANNELS 3 Zrotation Xrotation Yrotation
        JOINT neck
        {
          OFFSET 0 14.38658 9.616178
          CHANNELS 3 Zrotation Xrotation Yrotation
          End Site
          {
            OFFSET 0 20 0
          }
        }
      }
      JOINT right_manubrium
      {
        OFFSET -5.722621 16.35077 3.967754
        CHANNELS 3 Zrotation Xrotation Yrotation
        JOINT right_clavicle
        {
          OFFSET -13.16364 1.694482 -4.693211
          CHANNELS 3 Zrotation Xrotation Yrotation
          JOINT right_humerus
          {
            OFFSET -28.5034 -0.3100689 -2.792744
            CHANNELS 3 Zrotation Xrotation Yrotation
            JOINT right_radius
            {
              OFFSET -25.15693 0.02248979 -1.271978
              CHANNELS 3 Zrotation Xrotation Yrotation
              End Site
              {
                OFFSET -15 0 0
              }
            }
          }
        }
      }
      JOINT left_manubrium
      {
        OFFSET 5.722621 16.35077 3.967754
        CHANNELS 3 Zrotation Xrotation Yrotation
        JOINT left_clavicle
        {
          OFFSET 13.16364 1.694482 -4.693211
          CHANNELS 3 Zrotation Xrotation Yrotation
          JOINT left_humerus
          {
            OFFSET 29.39168 -1.063119 -2.237045
            CHANNELS 3 Zrotation Xrotation Yrotation
            JOINT left_radius
            {
              OFFSET 24.59957 -0.9528479 0.9047498
              CHANNELS 3 Zrotation Xrotation Yrotation
              End Site
              {
                OFFSET 15 -0 -0
              }
            }
          }
        }
      }
    }
  }
}
MOTION
Frames: 7
Frame Time: 0.0416666666667
0 103.5113 0 2.264795 -0.5239756 -0.03147376 4.059578 -16.24226 10.32772 -0 38.45126 -0 -4.157814 -17.93115 -2.367413 -9.183995 11.04828 -23.43356 -0 5.1672 -0 20.51644 -10.3783 32.52642 -2.24579 -1.909663 4.974765 2.408315 10.05893 -6.9854 1.342827 21.23287 7.546746 3.447321 -26.22115 10.59394 5.233417 -19.23635 11.07992 87.91766 39.18524 -19.23354 -0 0 13.01128 -7.720072 8.285465 4.438778 6.082536 -20.23617 -1.597593 -91.60922 20.30792 21.07949 0 0 -16.57109 14.93837 12.06338 -2.735815
0.2065456 103.7528 1.648157 1.891078 0.5580701 -0.065163 4.944083 -18.28249 11.54452 -0 38.05643 -0 -4.449063 -17.17704 -2.676636 -9.045546 11.04375 -23.67633 -0 5.535541 -0 20.82438 -10.96325 32.9069 -2.287082 -1.742698 4.881018 2.499269 10.0338 -7.112745 1.366826 20.94267 7.652672 3.495625 -26.49309 10.7626 5.103065 -19.35424 11.04814 88.43757 40.10028 -19.63388 -0 0 12.80342 -7.082455 8.294052 4.127404 6.195928 -20.28094 -1.747856 -90.62206 19.89929 20.31772 0 0 -18.73772 15.66517 11.08953 -3.472685
0.4658713 103.7341 3.629881 1.557982 0.9666113 0.007321247 4.820351 -20.89796 9.160868 -0 33.08079 -0 -5.02942 -14.42455 -1.977551 -8.570721 11.29452 -22.39155 -0 5.547887 -0 17.78475 -13.80452 29.95405 -2.25758 -1.734107 4.722816 2.614031 10.12495 -7.270696 1.39233 20.89625 7.500042 3.40623 -26.23979 10.54915 5.201316 -19.08561 11.14213 88.46091 39.61712 -19.98237 -0 0 12.43784 -7.126151 8.501195 4.267117 6.187757 -20.37982 -1.881445 -90.24115 20.14195 19.69578 0 0 -19.40157 15.2014 11.04457 -2.987233
0.7337485 103.6288 5.769575 1.203755 1.477071 0.1291237 5.103775 -22.76996 8.792114 -0 30.99466 -0 -5.288462 -13.16834 -2.017101 -8.184637 11.51679 -21.96496 -0 5.72428 -0 15.91306 -15.48227 28.6387 -2.25285 -1.696838 4.598665 2.706154 10.15843 -7.398742 1.412852 20.79362 7.430897 3.359017 -26.13355 10.45596 5.225278 -18.94673 11.18791 88.57952 39.55058 -20.27153 -0 0 12.17331 -7.00845 8.643794 4.294062 6.222598 -20.45989 -1.993796 -89.73043 20.18774 19.08016 0 0 -20.40804 15.10019 10.78188 -2.881667
1.017409 103.4134 8.199133 0.8471281 2.20494 0.3395075 5.380745 -25.30829 7.874206 -0 27.74857 -0 -5.725916 -11.1183 -1.696302 -7.855102 11.72692 -21.136 -0 6.051559 -0 14.31278 -17.09472 26.87685 -2.231259 -1.700583 4.472172 2.818533 10.20667 -7.558533 1.431874 20.68471 7.33639 3.288049 -26.01771 10.34064 5.27593 -18.79284 11.24772 88.68471 39.326 -20.64102 -0 0 11.92336 -6.870691 8.804352 4.322861 6.250328 -20.56451 -2.102091 -89.2874 20.34233 18.51113 0 0 -21.3724 14.859 10.60478 -2.608819
1.312415 103.0872 10.96079 0.4641742 2.974788 0.6537568 5.687653 -27.91446 6.989396 -0 24.44237 -0 -6.176041 -8.980388 -1.358318 -7.513286 11.99006 -20.24113 -0 6.581549 -0 12.70451 -18.53833 25.03395 -2.211181 -1.70922 4.354393 2.923826 10.24456 -7.710624 1.44823 20.57553 7.252468 3.221942 -25.90974 10.23754 5.319309 -18.65427 11.30013 88.78641 39.13145 -20.98953 -0 0 11.69775 -6.734755 8.958896 4.346998 6.283777 -20.67011 -2.200108 -88.8555 20.47861 17.96444 0 0 -22.32098 14.64541 10.43016 -2.36429
1.614535 102.6501 14.1476 0.04131927 3.775605 1.087631 5.992924 -30.62542 5.924134 -0 20.77117 -0 -6.717195 -6.50815 -0.9070586 -7.137906 12.34218 -19.15075 -0 7.519903 -0 10.94028 -19.79305 22.89196 -2.185688 -1.732001 4.247098 3.025517 10.28495 -7.86133 1.461076 20.47371 7.167971 3.154688 -25.80041 10.13222 5.367802 -18.52089 11.35251 88.87678 38.89265 -21.3384 -0 0 11.49587 -6.615128 9.108746 4.372657 6.312136 -20.77997 -2.28865 -88.48576 20.63825 17.48137 0 0 -23.16371 14.39146 10.30094 -2.070354
